# xmcd
#
# Track frame offsets: 
#        150
#        13155
#        25472
#        39810
#        54717
#        70462
#        83000
#        94160
#        106732
#        119737
#        134215
#        147360
#        159607
#        173367
#        186555
#        199430
#        211745
#        222695
#
# Disc length: 3117 seconds
#
# Revision: 6
# Processed by: cddbd v1.5.2PL0 Copyright (c) Steve Scherf et al.
# Submitted via: ExactAudioCopy v0.99pb4
#
DISCID=170c2b12
DTITLE=Various Artist - The Chess Blues-Rock Songbook: The Classic Originals 
DTITLE=[disc 1]
DYEAR=1997
DGENRE=Chicago Blues
TTITLE0=Muddy Waters - I'm Your Hoochie Coochie Man
TTITLE1=Memphis Slim - Mother Earth
TTITLE2=Willie Mabon - I Don't Know
TTITLE3=John Lee Hooker - Sugar Mama
TTITLE4=Eddie Boyd - 24 Hours
TTITLE5=John Brim - Ice Cream Man
TTITLE6=Sugar Boy Crawford - Jock-A-Mo
TTITLE7=Willie Dixon - Wang Dang Doodle
TTITLE8=Muddy Waters - I Just Want to Make Love to You
TTITLE9=Lowell Fulson - Reconsider Baby
TTITLE10=J.B. Lenoir - Eisenhower Blues
TTITLE11=Little Walter - My Babe
TTITLE12=Bo Diddley - I'm a Man
TTITLE13=Willie Mabon - The Seventh Son
TTITLE14=Bobby Charles - See You Later Alligator
TTITLE15=Muddy Waters - Trouble No More
TTITLE16=Chuck Berry - Roll Over Beethoven
TTITLE17=Bo Diddley - Who Do You Love?
EXTD=2CD: MCA/Chess CHD2-9389 (1997-08-26), UPC 076732938928, BMG D220
EXTD=616.
EXTT0=
EXTT1=
EXTT2=
EXTT3=
EXTT4=
EXTT5=
EXTT6=
EXTT7=
EXTT8=
EXTT9=
EXTT10=
EXTT11=
EXTT12=
EXTT13=
EXTT14=
EXTT15=
EXTT16=
EXTT17=
PLAYORDER=
